<svg width="650" height="450" viewBox="0 0 650 450" fill="none" xmlns="http://www.w3.org/2000/svg">
<rect width="650" height="450" fill="#E5E5E5"/>
<rect width="650" height="450" fill="white"/>
<rect x="51" y="33" width="216" height="176" fill="#6E2CA3"/>
<path d="M128.967 80.4746C128.768 83.2285 127.748 85.3965 125.908 86.9785C124.08 88.5605 121.666 89.3516 118.666 89.3516C115.385 89.3516 112.801 88.25 110.914 86.0469C109.039 83.832 108.102 80.7969 108.102 76.9414V75.377C108.102 72.916 108.535 70.748 109.402 68.873C110.27 66.998 111.506 65.5625 113.111 64.5664C114.729 63.5586 116.604 63.0547 118.736 63.0547C121.689 63.0547 124.068 63.8457 125.873 65.4277C127.678 67.0098 128.721 69.2305 129.002 72.0898H123.729C123.6 70.4375 123.137 69.2422 122.34 68.5039C121.555 67.7539 120.354 67.3789 118.736 67.3789C116.979 67.3789 115.66 68.0117 114.781 69.2773C113.914 70.5312 113.469 72.4824 113.445 75.1309V77.0645C113.445 79.8301 113.861 81.8516 114.693 83.1289C115.537 84.4062 116.861 85.0449 118.666 85.0449C120.295 85.0449 121.508 84.6758 122.305 83.9375C123.113 83.1875 123.576 82.0332 123.693 80.4746H128.967ZM131.305 79.3145C131.305 77.4277 131.668 75.7461 132.395 74.2695C133.121 72.793 134.164 71.6504 135.523 70.8418C136.895 70.0332 138.482 69.6289 140.287 69.6289C142.854 69.6289 144.945 70.4141 146.562 71.9844C148.191 73.5547 149.1 75.6875 149.287 78.3828L149.322 79.6836C149.322 82.6016 148.508 84.9453 146.879 86.7148C145.25 88.4727 143.064 89.3516 140.322 89.3516C137.58 89.3516 135.389 88.4727 133.748 86.7148C132.119 84.957 131.305 82.5664 131.305 79.543V79.3145ZM136.385 79.6836C136.385 81.4883 136.725 82.8711 137.404 83.832C138.084 84.7812 139.057 85.2559 140.322 85.2559C141.553 85.2559 142.514 84.7871 143.205 83.8496C143.896 82.9004 144.242 81.3887 144.242 79.3145C144.242 77.5449 143.896 76.1738 143.205 75.2012C142.514 74.2285 141.541 73.7422 140.287 73.7422C139.045 73.7422 138.084 74.2285 137.404 75.2012C136.725 76.1621 136.385 77.6562 136.385 79.6836ZM163.139 74.7441C162.447 74.6504 161.838 74.6035 161.311 74.6035C159.389 74.6035 158.129 75.2539 157.531 76.5547V89H152.451V69.9805H157.25L157.391 72.248C158.41 70.502 159.822 69.6289 161.627 69.6289C162.189 69.6289 162.717 69.7051 163.209 69.8574L163.139 74.7441ZM174.002 89.3516C171.213 89.3516 168.939 88.4961 167.182 86.7852C165.436 85.0742 164.562 82.7949 164.562 79.9473V79.4551C164.562 77.5449 164.932 75.8398 165.67 74.3398C166.408 72.8281 167.451 71.668 168.799 70.8594C170.158 70.0391 171.705 69.6289 173.439 69.6289C176.041 69.6289 178.086 70.4492 179.574 72.0898C181.074 73.7305 181.824 76.0566 181.824 79.0684V81.1426H169.713C169.877 82.3848 170.369 83.3809 171.189 84.1309C172.021 84.8809 173.07 85.2559 174.336 85.2559C176.293 85.2559 177.822 84.5469 178.924 83.1289L181.42 85.9238C180.658 87.002 179.627 87.8457 178.326 88.4551C177.025 89.0527 175.584 89.3516 174.002 89.3516ZM173.422 73.7422C172.414 73.7422 171.594 74.082 170.961 74.7617C170.34 75.4414 169.941 76.4141 169.766 77.6797H176.832V77.2754C176.809 76.1504 176.504 75.2832 175.918 74.6738C175.332 74.0527 174.5 73.7422 173.422 73.7422ZM210.705 78.418C210.705 81.957 209.973 84.6641 208.508 86.5391C207.043 88.4141 204.898 89.3516 202.074 89.3516C199.285 89.3516 197.152 88.4316 195.676 86.5918C194.199 84.752 193.443 82.1152 193.408 78.6816V73.9707C193.408 70.3965 194.146 67.6836 195.623 65.832C197.111 63.9805 199.25 63.0547 202.039 63.0547C204.828 63.0547 206.961 63.9746 208.438 65.8145C209.914 67.6426 210.67 70.2734 210.705 73.707V78.418ZM205.625 73.25C205.625 71.1289 205.332 69.5879 204.746 68.627C204.172 67.6543 203.27 67.168 202.039 67.168C200.844 67.168 199.959 67.6309 199.385 68.5566C198.822 69.4707 198.523 70.9062 198.488 72.8633V79.0859C198.488 81.1719 198.77 82.7246 199.332 83.7441C199.906 84.752 200.82 85.2559 202.074 85.2559C203.316 85.2559 204.213 84.7695 204.764 83.7969C205.314 82.8242 205.602 81.3359 205.625 79.332V73.25Z" fill="white"/>
<rect x="60" y="156" width="198" height="33" fill="#3F007E"/>
<path d="M74.4 164H89.94V180.28H74.4V164Z" fill="#CE51D9"/>
<path d="M96.6 164H112.14V180.28H96.6V164Z" fill="#CE51D9"/>
<path d="M118.8 164H133.6V180.28H118.8V164Z" fill="#CE51D9"/>
<path d="M140.26 164H155.06V180.28H140.26V164Z" fill="#0029FF"/>
<path d="M161.72 164H176.52V180.28H161.72V164Z" fill="#CE51D9"/>
<path d="M183.18 164H199.46V180.28H183.18V164Z" fill="#CE51D9"/>
<path d="M206.12 164H221.66V180.28H206.12V164Z" fill="#FB0D0D"/>
<path d="M228.32 164H243.86V180.28H228.32V164Z" fill="#CE51D9"/>
<path d="M114.77 131.316C114.637 133.152 113.957 134.598 112.73 135.652C111.512 136.707 109.902 137.234 107.902 137.234C105.715 137.234 103.992 136.5 102.734 135.031C101.484 133.555 100.859 131.531 100.859 128.961V127.918C100.859 126.277 101.148 124.832 101.727 123.582C102.305 122.332 103.129 121.375 104.199 120.711C105.277 120.039 106.527 119.703 107.949 119.703C109.918 119.703 111.504 120.23 112.707 121.285C113.91 122.34 114.605 123.82 114.793 125.727H111.277C111.191 124.625 110.883 123.828 110.352 123.336C109.828 122.836 109.027 122.586 107.949 122.586C106.777 122.586 105.898 123.008 105.312 123.852C104.734 124.688 104.438 125.988 104.422 127.754V129.043C104.422 130.887 104.699 132.234 105.254 133.086C105.816 133.938 106.699 134.363 107.902 134.363C108.988 134.363 109.797 134.117 110.328 133.625C110.867 133.125 111.176 132.355 111.254 131.316H114.77ZM124.203 137C124.047 136.695 123.934 136.316 123.863 135.863C123.043 136.777 121.977 137.234 120.664 137.234C119.422 137.234 118.391 136.875 117.57 136.156C116.758 135.438 116.352 134.531 116.352 133.438C116.352 132.094 116.848 131.062 117.84 130.344C118.84 129.625 120.281 129.262 122.164 129.254H123.723V128.527C123.723 127.941 123.57 127.473 123.266 127.121C122.969 126.77 122.496 126.594 121.848 126.594C121.277 126.594 120.828 126.73 120.5 127.004C120.18 127.277 120.02 127.652 120.02 128.129H116.633C116.633 127.395 116.859 126.715 117.312 126.09C117.766 125.465 118.406 124.977 119.234 124.625C120.062 124.266 120.992 124.086 122.023 124.086C123.586 124.086 124.824 124.48 125.738 125.27C126.66 126.051 127.121 127.152 127.121 128.574V134.07C127.129 135.273 127.297 136.184 127.625 136.801V137H124.203ZM121.402 134.645C121.902 134.645 122.363 134.535 122.785 134.316C123.207 134.09 123.52 133.789 123.723 133.414V131.234H122.457C120.762 131.234 119.859 131.82 119.75 132.992L119.738 133.191C119.738 133.613 119.887 133.961 120.184 134.234C120.48 134.508 120.887 134.645 121.402 134.645ZM134.996 134.504C135.621 134.504 136.129 134.332 136.52 133.988C136.91 133.645 137.113 133.188 137.129 132.617H140.305C140.297 133.477 140.062 134.266 139.602 134.984C139.141 135.695 138.508 136.25 137.703 136.648C136.906 137.039 136.023 137.234 135.055 137.234C133.242 137.234 131.812 136.66 130.766 135.512C129.719 134.355 129.195 132.762 129.195 130.73V130.508C129.195 128.555 129.715 126.996 130.754 125.832C131.793 124.668 133.219 124.086 135.031 124.086C136.617 124.086 137.887 124.539 138.84 125.445C139.801 126.344 140.289 127.543 140.305 129.043H137.129C137.113 128.387 136.91 127.855 136.52 127.449C136.129 127.035 135.613 126.828 134.973 126.828C134.184 126.828 133.586 127.117 133.18 127.695C132.781 128.266 132.582 129.195 132.582 130.484V130.836C132.582 132.141 132.781 133.078 133.18 133.648C133.578 134.219 134.184 134.504 134.996 134.504ZM145.543 125.703C146.441 124.625 147.57 124.086 148.93 124.086C151.68 124.086 153.074 125.684 153.113 128.879V137H149.727V128.973C149.727 128.246 149.57 127.711 149.258 127.367C148.945 127.016 148.426 126.84 147.699 126.84C146.707 126.84 145.988 127.223 145.543 127.988V137H142.156V119H145.543V125.703ZM161.504 137.234C159.645 137.234 158.129 136.664 156.957 135.523C155.793 134.383 155.211 132.863 155.211 130.965V130.637C155.211 129.363 155.457 128.227 155.949 127.227C156.441 126.219 157.137 125.445 158.035 124.906C158.941 124.359 159.973 124.086 161.129 124.086C162.863 124.086 164.227 124.633 165.219 125.727C166.219 126.82 166.719 128.371 166.719 130.379V131.762H158.645C158.754 132.59 159.082 133.254 159.629 133.754C160.184 134.254 160.883 134.504 161.727 134.504C163.031 134.504 164.051 134.031 164.785 133.086L166.449 134.949C165.941 135.668 165.254 136.23 164.387 136.637C163.52 137.035 162.559 137.234 161.504 137.234ZM161.117 126.828C160.445 126.828 159.898 127.055 159.477 127.508C159.062 127.961 158.797 128.609 158.68 129.453H163.391V129.184C163.375 128.434 163.172 127.855 162.781 127.449C162.391 127.035 161.836 126.828 161.117 126.828ZM178.367 134.176H185.832V137H174.852V119.938H178.367V134.176ZM191.211 137H187.812V124.32H191.211V137ZM187.613 121.039C187.613 120.531 187.781 120.113 188.117 119.785C188.461 119.457 188.926 119.293 189.512 119.293C190.09 119.293 190.551 119.457 190.895 119.785C191.238 120.113 191.41 120.531 191.41 121.039C191.41 121.555 191.234 121.977 190.883 122.305C190.539 122.633 190.082 122.797 189.512 122.797C188.941 122.797 188.48 122.633 188.129 122.305C187.785 121.977 187.613 121.555 187.613 121.039ZM197.129 124.32L197.234 125.785C198.141 124.652 199.355 124.086 200.879 124.086C202.223 124.086 203.223 124.48 203.879 125.27C204.535 126.059 204.871 127.238 204.887 128.809V137H201.5V128.891C201.5 128.172 201.344 127.652 201.031 127.332C200.719 127.004 200.199 126.84 199.473 126.84C198.52 126.84 197.805 127.246 197.328 128.059V137H193.941V124.32H197.129ZM213.301 137.234C211.441 137.234 209.926 136.664 208.754 135.523C207.59 134.383 207.008 132.863 207.008 130.965V130.637C207.008 129.363 207.254 128.227 207.746 127.227C208.238 126.219 208.934 125.445 209.832 124.906C210.738 124.359 211.77 124.086 212.926 124.086C214.66 124.086 216.023 124.633 217.016 125.727C218.016 126.82 218.516 128.371 218.516 130.379V131.762H210.441C210.551 132.59 210.879 133.254 211.426 133.754C211.98 134.254 212.68 134.504 213.523 134.504C214.828 134.504 215.848 134.031 216.582 133.086L218.246 134.949C217.738 135.668 217.051 136.23 216.184 136.637C215.316 137.035 214.355 137.234 213.301 137.234ZM212.914 126.828C212.242 126.828 211.695 127.055 211.273 127.508C210.859 127.961 210.594 128.609 210.477 129.453H215.188V129.184C215.172 128.434 214.969 127.855 214.578 127.449C214.188 127.035 213.633 126.828 212.914 126.828Z" fill="white"/>
<rect x="382" y="33" width="216" height="176" fill="#6E2CA3"/>
<path d="M459.967 80.4746C459.768 83.2285 458.748 85.3965 456.908 86.9785C455.08 88.5605 452.666 89.3516 449.666 89.3516C446.385 89.3516 443.801 88.25 441.914 86.0469C440.039 83.832 439.102 80.7969 439.102 76.9414V75.377C439.102 72.916 439.535 70.748 440.402 68.873C441.27 66.998 442.506 65.5625 444.111 64.5664C445.729 63.5586 447.604 63.0547 449.736 63.0547C452.689 63.0547 455.068 63.8457 456.873 65.4277C458.678 67.0098 459.721 69.2305 460.002 72.0898H454.729C454.6 70.4375 454.137 69.2422 453.34 68.5039C452.555 67.7539 451.354 67.3789 449.736 67.3789C447.979 67.3789 446.66 68.0117 445.781 69.2773C444.914 70.5312 444.469 72.4824 444.445 75.1309V77.0645C444.445 79.8301 444.861 81.8516 445.693 83.1289C446.537 84.4062 447.861 85.0449 449.666 85.0449C451.295 85.0449 452.508 84.6758 453.305 83.9375C454.113 83.1875 454.576 82.0332 454.693 80.4746H459.967ZM462.305 79.3145C462.305 77.4277 462.668 75.7461 463.395 74.2695C464.121 72.793 465.164 71.6504 466.523 70.8418C467.895 70.0332 469.482 69.6289 471.287 69.6289C473.854 69.6289 475.945 70.4141 477.562 71.9844C479.191 73.5547 480.1 75.6875 480.287 78.3828L480.322 79.6836C480.322 82.6016 479.508 84.9453 477.879 86.7148C476.25 88.4727 474.064 89.3516 471.322 89.3516C468.58 89.3516 466.389 88.4727 464.748 86.7148C463.119 84.957 462.305 82.5664 462.305 79.543V79.3145ZM467.385 79.6836C467.385 81.4883 467.725 82.8711 468.404 83.832C469.084 84.7812 470.057 85.2559 471.322 85.2559C472.553 85.2559 473.514 84.7871 474.205 83.8496C474.896 82.9004 475.242 81.3887 475.242 79.3145C475.242 77.5449 474.896 76.1738 474.205 75.2012C473.514 74.2285 472.541 73.7422 471.287 73.7422C470.045 73.7422 469.084 74.2285 468.404 75.2012C467.725 76.1621 467.385 77.6562 467.385 79.6836ZM494.139 74.7441C493.447 74.6504 492.838 74.6035 492.311 74.6035C490.389 74.6035 489.129 75.2539 488.531 76.5547V89H483.451V69.9805H488.25L488.391 72.248C489.41 70.502 490.822 69.6289 492.627 69.6289C493.189 69.6289 493.717 69.7051 494.209 69.8574L494.139 74.7441ZM505.002 89.3516C502.213 89.3516 499.939 88.4961 498.182 86.7852C496.436 85.0742 495.562 82.7949 495.562 79.9473V79.4551C495.562 77.5449 495.932 75.8398 496.67 74.3398C497.408 72.8281 498.451 71.668 499.799 70.8594C501.158 70.0391 502.705 69.6289 504.439 69.6289C507.041 69.6289 509.086 70.4492 510.574 72.0898C512.074 73.7305 512.824 76.0566 512.824 79.0684V81.1426H500.713C500.877 82.3848 501.369 83.3809 502.189 84.1309C503.021 84.8809 504.07 85.2559 505.336 85.2559C507.293 85.2559 508.822 84.5469 509.924 83.1289L512.42 85.9238C511.658 87.002 510.627 87.8457 509.326 88.4551C508.025 89.0527 506.584 89.3516 505.002 89.3516ZM504.422 73.7422C503.414 73.7422 502.594 74.082 501.961 74.7617C501.34 75.4414 500.941 76.4141 500.766 77.6797H507.832V77.2754C507.809 76.1504 507.504 75.2832 506.918 74.6738C506.332 74.0527 505.5 73.7422 504.422 73.7422ZM536.818 89H531.738V69.418L525.674 71.2988V67.168L536.273 63.3711H536.818V89Z" fill="white"/>
<rect x="391" y="156" width="198" height="33" fill="#3F007E"/>
<path d="M405.4 164H420.94V180.28H405.4V164Z" fill="#CE51D9"/>
<path d="M427.6 164H443.14V180.28H427.6V164Z" fill="#CE51D9"/>
<path d="M449.8 164H464.6V180.28H449.8V164Z" fill="#CE51D9"/>
<path d="M471.26 164H486.06V180.28H471.26V164Z" fill="#0029FF"/>
<path d="M492.72 164H507.52V180.28H492.72V164Z" fill="#CE51D9"/>
<path d="M514.18 164H530.46V180.28H514.18V164Z" fill="#CE51D9"/>
<path d="M537.12 164H552.66V180.28H537.12V164Z" fill="#FB0D0D"/>
<path d="M559.32 164H574.86V180.28H559.32V164Z" fill="#CE51D9"/>
<path d="M445.77 131.316C445.637 133.152 444.957 134.598 443.73 135.652C442.512 136.707 440.902 137.234 438.902 137.234C436.715 137.234 434.992 136.5 433.734 135.031C432.484 133.555 431.859 131.531 431.859 128.961V127.918C431.859 126.277 432.148 124.832 432.727 123.582C433.305 122.332 434.129 121.375 435.199 120.711C436.277 120.039 437.527 119.703 438.949 119.703C440.918 119.703 442.504 120.23 443.707 121.285C444.91 122.34 445.605 123.82 445.793 125.727H442.277C442.191 124.625 441.883 123.828 441.352 123.336C440.828 122.836 440.027 122.586 438.949 122.586C437.777 122.586 436.898 123.008 436.312 123.852C435.734 124.688 435.438 125.988 435.422 127.754V129.043C435.422 130.887 435.699 132.234 436.254 133.086C436.816 133.938 437.699 134.363 438.902 134.363C439.988 134.363 440.797 134.117 441.328 133.625C441.867 133.125 442.176 132.355 442.254 131.316H445.77ZM455.203 137C455.047 136.695 454.934 136.316 454.863 135.863C454.043 136.777 452.977 137.234 451.664 137.234C450.422 137.234 449.391 136.875 448.57 136.156C447.758 135.438 447.352 134.531 447.352 133.438C447.352 132.094 447.848 131.062 448.84 130.344C449.84 129.625 451.281 129.262 453.164 129.254H454.723V128.527C454.723 127.941 454.57 127.473 454.266 127.121C453.969 126.77 453.496 126.594 452.848 126.594C452.277 126.594 451.828 126.73 451.5 127.004C451.18 127.277 451.02 127.652 451.02 128.129H447.633C447.633 127.395 447.859 126.715 448.312 126.09C448.766 125.465 449.406 124.977 450.234 124.625C451.062 124.266 451.992 124.086 453.023 124.086C454.586 124.086 455.824 124.48 456.738 125.27C457.66 126.051 458.121 127.152 458.121 128.574V134.07C458.129 135.273 458.297 136.184 458.625 136.801V137H455.203ZM452.402 134.645C452.902 134.645 453.363 134.535 453.785 134.316C454.207 134.09 454.52 133.789 454.723 133.414V131.234H453.457C451.762 131.234 450.859 131.82 450.75 132.992L450.738 133.191C450.738 133.613 450.887 133.961 451.184 134.234C451.48 134.508 451.887 134.645 452.402 134.645ZM465.996 134.504C466.621 134.504 467.129 134.332 467.52 133.988C467.91 133.645 468.113 133.188 468.129 132.617H471.305C471.297 133.477 471.062 134.266 470.602 134.984C470.141 135.695 469.508 136.25 468.703 136.648C467.906 137.039 467.023 137.234 466.055 137.234C464.242 137.234 462.812 136.66 461.766 135.512C460.719 134.355 460.195 132.762 460.195 130.73V130.508C460.195 128.555 460.715 126.996 461.754 125.832C462.793 124.668 464.219 124.086 466.031 124.086C467.617 124.086 468.887 124.539 469.84 125.445C470.801 126.344 471.289 127.543 471.305 129.043H468.129C468.113 128.387 467.91 127.855 467.52 127.449C467.129 127.035 466.613 126.828 465.973 126.828C465.184 126.828 464.586 127.117 464.18 127.695C463.781 128.266 463.582 129.195 463.582 130.484V130.836C463.582 132.141 463.781 133.078 464.18 133.648C464.578 134.219 465.184 134.504 465.996 134.504ZM476.543 125.703C477.441 124.625 478.57 124.086 479.93 124.086C482.68 124.086 484.074 125.684 484.113 128.879V137H480.727V128.973C480.727 128.246 480.57 127.711 480.258 127.367C479.945 127.016 479.426 126.84 478.699 126.84C477.707 126.84 476.988 127.223 476.543 127.988V137H473.156V119H476.543V125.703ZM492.504 137.234C490.645 137.234 489.129 136.664 487.957 135.523C486.793 134.383 486.211 132.863 486.211 130.965V130.637C486.211 129.363 486.457 128.227 486.949 127.227C487.441 126.219 488.137 125.445 489.035 124.906C489.941 124.359 490.973 124.086 492.129 124.086C493.863 124.086 495.227 124.633 496.219 125.727C497.219 126.82 497.719 128.371 497.719 130.379V131.762H489.645C489.754 132.59 490.082 133.254 490.629 133.754C491.184 134.254 491.883 134.504 492.727 134.504C494.031 134.504 495.051 134.031 495.785 133.086L497.449 134.949C496.941 135.668 496.254 136.23 495.387 136.637C494.52 137.035 493.559 137.234 492.504 137.234ZM492.117 126.828C491.445 126.828 490.898 127.055 490.477 127.508C490.062 127.961 489.797 128.609 489.68 129.453H494.391V129.184C494.375 128.434 494.172 127.855 493.781 127.449C493.391 127.035 492.836 126.828 492.117 126.828ZM509.367 134.176H516.832V137H505.852V119.938H509.367V134.176ZM522.211 137H518.812V124.32H522.211V137ZM518.613 121.039C518.613 120.531 518.781 120.113 519.117 119.785C519.461 119.457 519.926 119.293 520.512 119.293C521.09 119.293 521.551 119.457 521.895 119.785C522.238 120.113 522.41 120.531 522.41 121.039C522.41 121.555 522.234 121.977 521.883 122.305C521.539 122.633 521.082 122.797 520.512 122.797C519.941 122.797 519.48 122.633 519.129 122.305C518.785 121.977 518.613 121.555 518.613 121.039ZM528.129 124.32L528.234 125.785C529.141 124.652 530.355 124.086 531.879 124.086C533.223 124.086 534.223 124.48 534.879 125.27C535.535 126.059 535.871 127.238 535.887 128.809V137H532.5V128.891C532.5 128.172 532.344 127.652 532.031 127.332C531.719 127.004 531.199 126.84 530.473 126.84C529.52 126.84 528.805 127.246 528.328 128.059V137H524.941V124.32H528.129ZM544.301 137.234C542.441 137.234 540.926 136.664 539.754 135.523C538.59 134.383 538.008 132.863 538.008 130.965V130.637C538.008 129.363 538.254 128.227 538.746 127.227C539.238 126.219 539.934 125.445 540.832 124.906C541.738 124.359 542.77 124.086 543.926 124.086C545.66 124.086 547.023 124.633 548.016 125.727C549.016 126.82 549.516 128.371 549.516 130.379V131.762H541.441C541.551 132.59 541.879 133.254 542.426 133.754C542.98 134.254 543.68 134.504 544.523 134.504C545.828 134.504 546.848 134.031 547.582 133.086L549.246 134.949C548.738 135.668 548.051 136.23 547.184 136.637C546.316 137.035 545.355 137.234 544.301 137.234ZM543.914 126.828C543.242 126.828 542.695 127.055 542.273 127.508C541.859 127.961 541.594 128.609 541.477 129.453H546.188V129.184C546.172 128.434 545.969 127.855 545.578 127.449C545.188 127.035 544.633 126.828 543.914 126.828Z" fill="white"/>
<rect x="51" y="277" width="547" height="145" fill="#2A004B"/>
<rect x="488" y="209" width="9" height="68" fill="#2A004B"/>
<rect x="155" y="209" width="9" height="68" fill="#2A004B"/>
<path d="M65 293H80.54V309.28H65V293Z" fill="#520092"/>
<path d="M65 293H80.54V309.28H65V293Z" fill="#390065"/>
<path d="M92 293H107.54V309.28H92V293Z" fill="#520092"/>
<path d="M92 293H107.54V309.28H92V293Z" fill="#390065"/>
<path d="M118 293H133.54V309.28H118V293Z" fill="#520092"/>
<path d="M118 293H133.54V309.28H118V293Z" fill="#390065"/>
<path d="M145 293H160.54V309.28H145V293Z" fill="#520092"/>
<path d="M145 293H160.54V309.28H145V293Z" fill="#390065"/>
<path d="M171 293H186.54V309.28H171V293Z" fill="#520092"/>
<path d="M171 293H186.54V309.28H171V293Z" fill="#390065"/>
<path d="M410 293H425.54V309.28H410V293Z" fill="#520092"/>
<path d="M410 293H425.54V309.28H410V293Z" fill="#390065"/>
<path d="M357 293H372.54V309.28H357V293Z" fill="#520092"/>
<path d="M357 293H372.54V309.28H357V293Z" fill="#390065"/>
<path d="M304 293H319.54V309.28H304V293Z" fill="#520092"/>
<path d="M304 293H319.54V309.28H304V293Z" fill="#390065"/>
<path d="M383 293H398.54V309.28H383V293Z" fill="#520092"/>
<path d="M383 293H398.54V309.28H383V293Z" fill="#390065"/>
<path d="M277 293H292.54V309.28H277V293Z" fill="#520092"/>
<path d="M277 293H292.54V309.28H277V293Z" fill="#390065"/>
<path d="M224 293H239.54V309.28H224V293Z" fill="#520092"/>
<path d="M224 293H239.54V309.28H224V293Z" fill="#390065"/>
<path d="M251 293H266.54V309.28H251V293Z" fill="#520092"/>
<path d="M251 293H266.54V309.28H251V293Z" fill="#390065"/>
<path d="M198 293H213.54V309.28H198V293Z" fill="#520092"/>
<path d="M198 293H213.54V309.28H198V293Z" fill="#390065"/>
<path d="M330 293H345.54V309.28H330V293Z" fill="#520092"/>
<path d="M330 293H345.54V309.28H330V293Z" fill="#390065"/>
<path d="M516 293H531.54V309.28H516V293Z" fill="#520092"/>
<path d="M516 293H531.54V309.28H516V293Z" fill="#390065"/>
<path d="M543 293H558.54V309.28H543V293Z" fill="#520092"/>
<path d="M543 293H558.54V309.28H543V293Z" fill="#390065"/>
<path d="M463 293H478.54V309.28H463V293Z" fill="#520092"/>
<path d="M463 293H478.54V309.28H463V293Z" fill="#390065"/>
<path d="M490 293H505.54V309.28H490V293Z" fill="#520092"/>
<path d="M490 293H505.54V309.28H490V293Z" fill="#390065"/>
<path d="M437 293H452.54V309.28H437V293Z" fill="#520092"/>
<path d="M437 293H452.54V309.28H437V293Z" fill="#390065"/>
<path d="M569 293H584.54V309.28H569V293Z" fill="#520092"/>
<path d="M569 293H584.54V309.28H569V293Z" fill="#390065"/>
<path d="M65 368H80.54V384.28H65V368Z" fill="#520092"/>
<path d="M65 368H80.54V384.28H65V368Z" fill="#390065"/>
<path d="M92 368H107.54V384.28H92V368Z" fill="#520092"/>
<path d="M92 368H107.54V384.28H92V368Z" fill="#390065"/>
<path d="M118 368H133.54V384.28H118V368Z" fill="#520092"/>
<path d="M118 368H133.54V384.28H118V368Z" fill="#390065"/>
<path d="M145 368H160.54V384.28H145V368Z" fill="#520092"/>
<path d="M145 368H160.54V384.28H145V368Z" fill="#390065"/>
<path d="M171 368H186.54V384.28H171V368Z" fill="#520092"/>
<path d="M171 368H186.54V384.28H171V368Z" fill="#390065"/>
<path d="M410 368H425.54V384.28H410V368Z" fill="#520092"/>
<path d="M410 368H425.54V384.28H410V368Z" fill="#CE51D9"/>
<path d="M357 368H372.54V384.28H357V368Z" fill="#520092"/>
<path d="M357 368H372.54V384.28H357V368Z" fill="#CE51D9"/>
<path d="M304 368H319.54V384.28H304V368Z" fill="#520092"/>
<path d="M304 368H319.54V384.28H304V368Z" fill="#CE51D9"/>
<path d="M383 368H398.54V384.28H383V368Z" fill="#520092"/>
<path d="M383 368H398.54V384.28H383V368Z" fill="#0029FF"/>
<path d="M277 368H292.54V384.28H277V368Z" fill="#520092"/>
<path d="M277 368H292.54V384.28H277V368Z" fill="#390065"/>
<path d="M224 368H239.54V384.28H224V368Z" fill="#520092"/>
<path d="M224 368H239.54V384.28H224V368Z" fill="#390065"/>
<path d="M251 368H266.54V384.28H251V368Z" fill="#520092"/>
<path d="M251 368H266.54V384.28H251V368Z" fill="#390065"/>
<path d="M198 368H213.54V384.28H198V368Z" fill="#520092"/>
<path d="M198 368H213.54V384.28H198V368Z" fill="#390065"/>
<path d="M330 368H345.54V384.28H330V368Z" fill="#520092"/>
<path d="M330 368H345.54V384.28H330V368Z" fill="#CE51D9"/>
<path d="M516 368H531.54V384.28H516V368Z" fill="#520092"/>
<path d="M516 368H531.54V384.28H516V368Z" fill="#390065"/>
<path d="M543 368H558.54V384.28H543V368Z" fill="#520092"/>
<path d="M543 368H558.54V384.28H543V368Z" fill="#390065"/>
<path d="M463 368H478.54V384.28H463V368Z" fill="#520092"/>
<path d="M463 368H478.54V384.28H463V368Z" fill="#FB0D0D"/>
<path d="M490 368H505.54V384.28H490V368Z" fill="#520092"/>
<path d="M490 368H505.54V384.28H490V368Z" fill="#CE51D9"/>
<path d="M437 368H452.54V384.28H437V368Z" fill="#520092"/>
<path d="M437 368H452.54V384.28H437V368Z" fill="#CE51D9"/>
<path d="M569 368H584.54V384.28H569V368Z" fill="#520092"/>
<path d="M569 368H584.54V384.28H569V368Z" fill="#390065"/>
<path d="M65 393H80.54V409.28H65V393Z" fill="#520092"/>
<path d="M65 393H80.54V409.28H65V393Z" fill="#390065"/>
<path d="M92 393H107.54V409.28H92V393Z" fill="#520092"/>
<path d="M92 393H107.54V409.28H92V393Z" fill="#390065"/>
<path d="M118 393H133.54V409.28H118V393Z" fill="#520092"/>
<path d="M118 393H133.54V409.28H118V393Z" fill="#390065"/>
<path d="M145 393H160.54V409.28H145V393Z" fill="#520092"/>
<path d="M145 393H160.54V409.28H145V393Z" fill="#390065"/>
<path d="M171 393H186.54V409.28H171V393Z" fill="#520092"/>
<path d="M171 393H186.54V409.28H171V393Z" fill="#390065"/>
<path d="M410 393H425.54V409.28H410V393Z" fill="#520092"/>
<path d="M410 393H425.54V409.28H410V393Z" fill="#390065"/>
<path d="M357 393H372.54V409.28H357V393Z" fill="#520092"/>
<path d="M357 393H372.54V409.28H357V393Z" fill="#390065"/>
<path d="M304 393H319.54V409.28H304V393Z" fill="#520092"/>
<path d="M304 393H319.54V409.28H304V393Z" fill="#390065"/>
<path d="M383 393H398.54V409.28H383V393Z" fill="#520092"/>
<path d="M383 393H398.54V409.28H383V393Z" fill="#390065"/>
<path d="M277 393H292.54V409.28H277V393Z" fill="#520092"/>
<path d="M277 393H292.54V409.28H277V393Z" fill="#390065"/>
<path d="M224 393H239.54V409.28H224V393Z" fill="#520092"/>
<path d="M224 393H239.54V409.28H224V393Z" fill="#390065"/>
<path d="M251 393H266.54V409.28H251V393Z" fill="#520092"/>
<path d="M251 393H266.54V409.28H251V393Z" fill="#390065"/>
<path d="M198 393H213.54V409.28H198V393Z" fill="#520092"/>
<path d="M198 393H213.54V409.28H198V393Z" fill="#390065"/>
<path d="M330 393H345.54V409.28H330V393Z" fill="#520092"/>
<path d="M330 393H345.54V409.28H330V393Z" fill="#390065"/>
<path d="M516 393H531.54V409.28H516V393Z" fill="#520092"/>
<path d="M516 393H531.54V409.28H516V393Z" fill="#390065"/>
<path d="M543 393H558.54V409.28H543V393Z" fill="#520092"/>
<path d="M543 393H558.54V409.28H543V393Z" fill="#390065"/>
<path d="M463 393H478.54V409.28H463V393Z" fill="#520092"/>
<path d="M463 393H478.54V409.28H463V393Z" fill="#390065"/>
<path d="M490 393H505.54V409.28H490V393Z" fill="#520092"/>
<path d="M490 393H505.54V409.28H490V393Z" fill="#390065"/>
<path d="M437 393H452.54V409.28H437V393Z" fill="#520092"/>
<path d="M437 393H452.54V409.28H437V393Z" fill="#390065"/>
<path d="M569 393H584.54V409.28H569V393Z" fill="#520092"/>
<path d="M569 393H584.54V409.28H569V393Z" fill="#390065"/>
<path d="M65 318H80.54V334.28H65V318Z" fill="#520092"/>
<path d="M65 318H80.54V334.28H65V318Z" fill="#390065"/>
<path d="M92 318H107.54V334.28H92V318Z" fill="#520092"/>
<path d="M92 318H107.54V334.28H92V318Z" fill="#390065"/>
<path d="M118 318H133.54V334.28H118V318Z" fill="#520092"/>
<path d="M118 318H133.54V334.28H118V318Z" fill="#390065"/>
<path d="M145 318H160.54V334.28H145V318Z" fill="#520092"/>
<path d="M145 318H160.54V334.28H145V318Z" fill="#390065"/>
<path d="M171 318H186.54V334.28H171V318Z" fill="#520092"/>
<path d="M171 318H186.54V334.28H171V318Z" fill="#390065"/>
<path d="M410 318H425.54V334.28H410V318Z" fill="#520092"/>
<path d="M410 318H425.54V334.28H410V318Z" fill="#390065"/>
<path d="M357 318H372.54V334.28H357V318Z" fill="#520092"/>
<path d="M357 318H372.54V334.28H357V318Z" fill="#390065"/>
<path d="M304 318H319.54V334.28H304V318Z" fill="#520092"/>
<path d="M304 318H319.54V334.28H304V318Z" fill="#390065"/>
<path d="M383 318H398.54V334.28H383V318Z" fill="#520092"/>
<path d="M383 318H398.54V334.28H383V318Z" fill="#390065"/>
<path d="M277 318H292.54V334.28H277V318Z" fill="#520092"/>
<path d="M277 318H292.54V334.28H277V318Z" fill="#390065"/>
<path d="M224 318H239.54V334.28H224V318Z" fill="#520092"/>
<path d="M224 318H239.54V334.28H224V318Z" fill="#390065"/>
<path d="M251 318H266.54V334.28H251V318Z" fill="#520092"/>
<path d="M251 318H266.54V334.28H251V318Z" fill="#390065"/>
<path d="M198 318H213.54V334.28H198V318Z" fill="#520092"/>
<path d="M198 318H213.54V334.28H198V318Z" fill="#390065"/>
<path d="M330 318H345.54V334.28H330V318Z" fill="#520092"/>
<path d="M330 318H345.54V334.28H330V318Z" fill="#390065"/>
<path d="M516 318H531.54V334.28H516V318Z" fill="#520092"/>
<path d="M516 318H531.54V334.28H516V318Z" fill="#390065"/>
<path d="M543 318H558.54V334.28H543V318Z" fill="#520092"/>
<path d="M543 318H558.54V334.28H543V318Z" fill="#390065"/>
<path d="M463 318H478.54V334.28H463V318Z" fill="#520092"/>
<path d="M463 318H478.54V334.28H463V318Z" fill="#390065"/>
<path d="M490 318H505.54V334.28H490V318Z" fill="#520092"/>
<path d="M490 318H505.54V334.28H490V318Z" fill="#390065"/>
<path d="M437 318H452.54V334.28H437V318Z" fill="#520092"/>
<path d="M437 318H452.54V334.28H437V318Z" fill="#390065"/>
<path d="M569 318H584.54V334.28H569V318Z" fill="#520092"/>
<path d="M569 318H584.54V334.28H569V318Z" fill="#390065"/>
<path d="M65 343H80.54V359.28H65V343Z" fill="#520092"/>
<path d="M65 343H80.54V359.28H65V343Z" fill="#390065"/>
<path d="M92 343H107.54V359.28H92V343Z" fill="#520092"/>
<path d="M92 343H107.54V359.28H92V343Z" fill="#390065"/>
<path d="M118 343H133.54V359.28H118V343Z" fill="#520092"/>
<path d="M118 343H133.54V359.28H118V343Z" fill="#390065"/>
<path d="M145 343H160.54V359.28H145V343Z" fill="#520092"/>
<path d="M145 343H160.54V359.28H145V343Z" fill="#390065"/>
<path d="M171 343H186.54V359.28H171V343Z" fill="#520092"/>
<path d="M171 343H186.54V359.28H171V343Z" fill="#390065"/>
<path d="M410 343H425.54V359.28H410V343Z" fill="#520092"/>
<path d="M410 343H425.54V359.28H410V343Z" fill="#390065"/>
<path d="M357 343H372.54V359.28H357V343Z" fill="#520092"/>
<path d="M357 343H372.54V359.28H357V343Z" fill="#390065"/>
<path d="M304 343H319.54V359.28H304V343Z" fill="#520092"/>
<path d="M304 343H319.54V359.28H304V343Z" fill="#390065"/>
<path d="M383 343H398.54V359.28H383V343Z" fill="#520092"/>
<path d="M383 343H398.54V359.28H383V343Z" fill="#390065"/>
<path d="M277 343H292.54V359.28H277V343Z" fill="#520092"/>
<path d="M277 343H292.54V359.28H277V343Z" fill="#390065"/>
<path d="M224 343H239.54V359.28H224V343Z" fill="#520092"/>
<path d="M224 343H239.54V359.28H224V343Z" fill="#390065"/>
<path d="M251 343H266.54V359.28H251V343Z" fill="#520092"/>
<path d="M251 343H266.54V359.28H251V343Z" fill="#390065"/>
<path d="M198 343H213.54V359.28H198V343Z" fill="#520092"/>
<path d="M198 343H213.54V359.28H198V343Z" fill="#390065"/>
<path d="M330 343H345.54V359.28H330V343Z" fill="#520092"/>
<path d="M330 343H345.54V359.28H330V343Z" fill="#390065"/>
<path d="M516 343H531.54V359.28H516V343Z" fill="#520092"/>
<path d="M516 343H531.54V359.28H516V343Z" fill="#390065"/>
<path d="M543 343H558.54V359.28H543V343Z" fill="#520092"/>
<path d="M543 343H558.54V359.28H543V343Z" fill="#390065"/>
<path d="M463 343H478.54V359.28H463V343Z" fill="#520092"/>
<path d="M463 343H478.54V359.28H463V343Z" fill="#390065"/>
<path d="M490 343H505.54V359.28H490V343Z" fill="#520092"/>
<path d="M490 343H505.54V359.28H490V343Z" fill="#390065"/>
<path d="M437 343H452.54V359.28H437V343Z" fill="#520092"/>
<path d="M437 343H452.54V359.28H437V343Z" fill="#390065"/>
<path d="M569 343H584.54V359.28H569V343Z" fill="#520092"/>
<path d="M569 343H584.54V359.28H569V343Z" fill="#390065"/>
<path d="M544.84 188.216C544.407 187.2 543.232 186.727 542.216 187.16L525.657 194.219C524.641 194.652 524.169 195.827 524.602 196.843C525.035 197.859 526.21 198.332 527.226 197.898L541.944 191.624L548.219 206.343C548.652 207.359 549.827 207.831 550.843 207.398C551.859 206.965 552.332 205.79 551.898 204.774L544.84 188.216ZM472.856 368.746L544.856 189.746L541.144 188.254L469.144 367.254L472.856 368.746Z" fill="#FB0D0D"/>
<path d="M223.739 178.017C222.644 178.161 221.873 179.166 222.017 180.261L224.366 198.107C224.511 199.202 225.515 199.973 226.61 199.829C227.705 199.685 228.476 198.68 228.332 197.585L226.244 181.722L242.107 179.634C243.202 179.489 243.973 178.485 243.829 177.39C243.685 176.295 242.68 175.524 241.585 175.668L223.739 178.017ZM470.218 366.413L225.218 178.413L222.782 181.587L467.782 369.587L470.218 366.413Z" fill="#FB0D0D"/>
<path d="M147.747 178.016C146.651 178.156 145.876 179.157 146.016 180.253L148.295 198.108C148.434 199.204 149.436 199.979 150.532 199.839C151.627 199.699 152.402 198.698 152.262 197.602L150.237 181.731L166.108 179.705C167.204 179.566 167.979 178.564 167.839 177.468C167.699 176.373 166.698 175.598 165.602 175.738L147.747 178.016ZM392.224 366.418L149.224 178.418L146.776 181.582L389.776 369.582L392.224 366.418Z" fill="#0029FF"/>
<path d="M480.88 179.319C480.504 178.28 479.357 177.743 478.319 178.12L461.395 184.251C460.357 184.628 459.82 185.774 460.196 186.813C460.572 187.851 461.719 188.388 462.758 188.012L477.801 182.562L483.251 197.605C483.628 198.643 484.774 199.18 485.813 198.804C486.851 198.428 487.388 197.281 487.012 196.242L480.88 179.319ZM392.811 368.848L480.811 180.848L477.189 179.152L389.189 367.152L392.811 368.848Z" fill="#0029FF"/>
<path d="M129.703 338.562L137.008 359.188L144.273 338.562H151.969V367H146.09V359.227L146.676 345.809L139 367H134.977L127.32 345.828L127.906 359.227V367H122.047V338.562H129.703ZM166.441 367.391C163.342 367.391 160.816 366.44 158.863 364.539C156.923 362.638 155.953 360.105 155.953 356.941V356.395C155.953 354.272 156.363 352.378 157.184 350.711C158.004 349.031 159.163 347.742 160.66 346.844C162.171 345.932 163.889 345.477 165.816 345.477C168.707 345.477 170.979 346.388 172.633 348.211C174.299 350.034 175.133 352.618 175.133 355.965V358.27H161.676C161.858 359.65 162.405 360.757 163.316 361.59C164.241 362.423 165.406 362.84 166.812 362.84C168.987 362.84 170.686 362.052 171.91 360.477L174.684 363.582C173.837 364.78 172.691 365.717 171.246 366.395C169.801 367.059 168.199 367.391 166.441 367.391ZM165.797 350.047C164.677 350.047 163.766 350.424 163.062 351.18C162.372 351.935 161.93 353.016 161.734 354.422H169.586V353.973C169.56 352.723 169.221 351.759 168.57 351.082C167.919 350.392 166.995 350.047 165.797 350.047ZM183.648 345.867L183.824 348.23C185.322 346.395 187.346 345.477 189.898 345.477C192.62 345.477 194.488 346.551 195.504 348.699C196.988 346.551 199.104 345.477 201.852 345.477C204.143 345.477 205.849 346.147 206.969 347.488C208.089 348.816 208.648 350.822 208.648 353.504V367H202.984V353.523C202.984 352.326 202.75 351.453 202.281 350.906C201.812 350.346 200.986 350.066 199.801 350.066C198.108 350.066 196.936 350.874 196.285 352.488L196.305 367H190.66V353.543C190.66 352.319 190.419 351.434 189.938 350.887C189.456 350.34 188.635 350.066 187.477 350.066C185.875 350.066 184.716 350.73 184 352.059V367H178.355V345.867H183.648ZM212.125 356.238C212.125 354.142 212.529 352.273 213.336 350.633C214.143 348.992 215.302 347.723 216.812 346.824C218.336 345.926 220.1 345.477 222.105 345.477C224.957 345.477 227.281 346.349 229.078 348.094C230.888 349.839 231.897 352.208 232.105 355.203L232.145 356.648C232.145 359.891 231.24 362.495 229.43 364.461C227.62 366.414 225.191 367.391 222.145 367.391C219.098 367.391 216.663 366.414 214.84 364.461C213.03 362.508 212.125 359.852 212.125 356.492V356.238ZM217.77 356.648C217.77 358.654 218.147 360.19 218.902 361.258C219.658 362.312 220.738 362.84 222.145 362.84C223.512 362.84 224.579 362.319 225.348 361.277C226.116 360.223 226.5 358.543 226.5 356.238C226.5 354.272 226.116 352.749 225.348 351.668C224.579 350.587 223.499 350.047 222.105 350.047C220.725 350.047 219.658 350.587 218.902 351.668C218.147 352.736 217.77 354.396 217.77 356.648ZM247.496 351.16C246.728 351.056 246.051 351.004 245.465 351.004C243.329 351.004 241.93 351.727 241.266 353.172V367H235.621V345.867H240.953L241.109 348.387C242.242 346.447 243.811 345.477 245.816 345.477C246.441 345.477 247.027 345.561 247.574 345.73L247.496 351.16ZM258.473 359.012L262.379 345.867H268.434L259.938 370.281L259.469 371.395C258.206 374.155 256.122 375.535 253.219 375.535C252.398 375.535 251.565 375.411 250.719 375.164V370.887L251.578 370.906C252.646 370.906 253.44 370.743 253.961 370.418C254.495 370.092 254.911 369.552 255.211 368.797L255.875 367.059L248.473 345.867H254.547L258.473 359.012Z" fill="white"/>
</svg>
